<svg width="21" height="21" viewBox="0 0 21 21" fill="none" xmlns="http://www.w3.org/2000/svg">
<path d="M19.8438 0C20.1562 0 20.4241 0.111607 20.6473 0.334821C20.8705 0.558035 20.9821 0.825892 20.9821 1.13839V19.433C20.9821 19.7455 20.8705 20.0134 20.6473 20.2366C20.4241 20.4598 20.1562 20.5714 19.8438 20.5714H14.6071V12.6027H17.2723L17.6741 9.49554H14.6071V7.51339C14.6071 7.01339 14.7098 6.63839 14.9152 6.38839C15.1295 6.13839 15.5402 6.01339 16.1473 6.01339L17.7812 6V3.22768C17.2188 3.14732 16.4241 3.10714 15.3973 3.10714C14.183 3.10714 13.2098 3.46429 12.4777 4.17857C11.7545 4.89286 11.3929 5.90179 11.3929 7.20536V9.49554H8.71428V12.6027H11.3929V20.5714H1.54911C1.23661 20.5714 0.968749 20.4598 0.745535 20.2366C0.52232 20.0134 0.410713 19.7455 0.410713 19.433V1.13839C0.410713 0.825892 0.52232 0.558035 0.745535 0.334821C0.968749 0.111607 1.23661 0 1.54911 0H19.8438Z" fill="white"/>
</svg>
