<svg width="21" height="21" viewBox="0 0 21 21" fill="none" xmlns="http://www.w3.org/2000/svg">
<path d="M13.1205 12.7098C13.7902 12.0402 14.125 11.2321 14.125 10.2857C14.125 9.33929 13.7902 8.53125 13.1205 7.86161C12.4509 7.19196 11.6429 6.85714 10.6964 6.85714C9.75001 6.85714 8.94197 7.19196 8.27233 7.86161C7.60269 8.53125 7.26786 9.33929 7.26786 10.2857C7.26786 11.2321 7.60269 12.0402 8.27233 12.7098C8.94197 13.3795 9.75001 13.7143 10.6964 13.7143C11.6429 13.7143 12.4509 13.3795 13.1205 12.7098ZM14.433 6.54911C15.4598 7.57589 15.9732 8.82143 15.9732 10.2857C15.9732 11.75 15.4598 12.9955 14.433 14.0223C13.4063 15.0491 12.1607 15.5625 10.6964 15.5625C9.23215 15.5625 7.98661 15.0491 6.95983 14.0223C5.93304 12.9955 5.41965 11.75 5.41965 10.2857C5.41965 8.82143 5.93304 7.57589 6.95983 6.54911C7.98661 5.52232 9.23215 5.00893 10.6964 5.00893C12.1607 5.00893 13.4063 5.52232 14.433 6.54911ZM17.058 3.92411C17.2991 4.16518 17.4196 4.45536 17.4196 4.79464C17.4196 5.13393 17.2991 5.42411 17.058 5.66518C16.817 5.90625 16.5268 6.02679 16.1875 6.02679C15.8482 6.02679 15.558 5.90625 15.317 5.66518C15.0759 5.42411 14.9554 5.13393 14.9554 4.79464C14.9554 4.45536 15.0759 4.16518 15.317 3.92411C15.558 3.68304 15.8482 3.5625 16.1875 3.5625C16.5268 3.5625 16.817 3.68304 17.058 3.92411ZM11.7143 1.84822C11.0982 1.84822 10.7589 1.84822 10.6964 1.84822C10.6339 1.84822 10.2902 1.84822 9.66518 1.84822C9.04911 1.83929 8.58036 1.83929 8.25893 1.84822C7.93751 1.84822 7.50447 1.86161 6.95983 1.88839C6.42411 1.90625 5.96429 1.95089 5.58036 2.02232C5.20536 2.08482 4.8884 2.16518 4.62947 2.26339C4.18304 2.44196 3.79019 2.70089 3.4509 3.04018C3.11161 3.37946 2.85269 3.77232 2.67411 4.21875C2.5759 4.47768 2.49108 4.79911 2.41965 5.18304C2.35715 5.55804 2.31251 6.01786 2.28572 6.5625C2.26786 7.09822 2.25447 7.52679 2.24554 7.84822C2.24554 8.16964 2.24554 8.64286 2.24554 9.26786C2.25447 9.88393 2.25894 10.2232 2.25894 10.2857C2.25894 10.3482 2.25447 10.692 2.24554 11.317C2.24554 11.933 2.24554 12.4018 2.24554 12.7232C2.25447 13.0446 2.26786 13.4777 2.28572 14.0223C2.31251 14.558 2.35715 15.0179 2.41965 15.4018C2.49108 15.7768 2.5759 16.0938 2.67411 16.3527C2.85269 16.7991 3.11161 17.192 3.4509 17.5312C3.79019 17.8705 4.18304 18.1295 4.62947 18.308C4.8884 18.4063 5.20536 18.4911 5.58036 18.5625C5.96429 18.625 6.42411 18.6696 6.95983 18.6964C7.50447 18.7143 7.93751 18.7277 8.25893 18.7366C8.58036 18.7366 9.04911 18.7366 9.66518 18.7366C10.2902 18.7277 10.6339 18.7232 10.6964 18.7232C10.7589 18.7232 11.0982 18.7277 11.7143 18.7366C12.3393 18.7366 12.8125 18.7366 13.1339 18.7366C13.4554 18.7277 13.8839 18.7143 14.4196 18.6964C14.9643 18.6696 15.4241 18.625 15.7991 18.5625C16.183 18.4911 16.5045 18.4063 16.7634 18.308C17.2098 18.1295 17.6027 17.8705 17.942 17.5312C18.2813 17.192 18.5402 16.7991 18.7188 16.3527C18.817 16.0938 18.8973 15.7768 18.9598 15.4018C19.0313 15.0179 19.0759 14.558 19.0938 14.0223C19.1205 13.4777 19.1339 13.0446 19.1339 12.7232C19.1429 12.4018 19.1429 11.933 19.1339 11.317C19.1339 10.692 19.1339 10.3482 19.1339 10.2857C19.1339 10.2232 19.1339 9.88393 19.1339 9.26786C19.1429 8.64286 19.1429 8.16964 19.1339 7.84822C19.1339 7.52679 19.1205 7.09822 19.0938 6.5625C19.0759 6.01786 19.0313 5.55804 18.9598 5.18304C18.8973 4.79911 18.817 4.47768 18.7188 4.21875C18.5402 3.77232 18.2813 3.37946 17.942 3.04018C17.6027 2.70089 17.2098 2.44196 16.7634 2.26339C16.5045 2.16518 16.183 2.08482 15.7991 2.02232C15.4241 1.95089 14.9643 1.90625 14.4196 1.88839C13.8839 1.86161 13.4554 1.84822 13.1339 1.84822C12.8125 1.83929 12.3393 1.83929 11.7143 1.84822ZM20.9152 6.04018C20.9598 6.82589 20.9822 8.24107 20.9822 10.2857C20.9822 12.3304 20.9598 13.7455 20.9152 14.5312C20.8259 16.3884 20.2723 17.8259 19.2545 18.8438C18.2366 19.8616 16.7991 20.4152 14.942 20.5045C14.1563 20.5491 12.7411 20.5714 10.6964 20.5714C8.65179 20.5714 7.23661 20.5491 6.4509 20.5045C4.59376 20.4152 3.15626 19.8616 2.1384 18.8438C1.12054 17.8259 0.566971 16.3884 0.477685 14.5312C0.433042 13.7455 0.410721 12.3304 0.410721 10.2857C0.410721 8.24107 0.433042 6.82589 0.477685 6.04018C0.566971 4.18304 1.12054 2.74554 2.1384 1.72768C3.15626 0.709821 4.59376 0.15625 6.4509 0.0669651C7.23661 0.0223217 8.65179 0 10.6964 0C12.7411 0 14.1563 0.0223217 14.942 0.0669651C16.7991 0.15625 18.2366 0.709821 19.2545 1.72768C20.2723 2.74554 20.8259 4.18304 20.9152 6.04018Z" fill="white"/>
</svg>
