<svg width="25" height="18" viewBox="0 0 25 18" fill="none" xmlns="http://www.w3.org/2000/svg">
<path d="M9.93304 12.3928L16.4152 9.04457L9.93304 5.65618V12.3928ZM12.4107 0.848145C13.9107 0.848145 15.3571 0.870466 16.75 0.915108C18.1518 0.950822 19.1786 0.991001 19.8304 1.03564L20.808 1.08922C20.817 1.08922 20.8929 1.09814 21.0357 1.116C21.1786 1.12493 21.2813 1.13832 21.3438 1.15618C21.4063 1.16511 21.5089 1.18296 21.6518 1.20975C21.8036 1.23654 21.933 1.27225 22.0402 1.31689C22.1473 1.36154 22.2723 1.41957 22.4152 1.491C22.558 1.56243 22.6964 1.65172 22.8304 1.75886C22.9643 1.85707 23.0938 1.97314 23.2188 2.10707C23.2723 2.16064 23.3393 2.24547 23.4196 2.36154C23.5089 2.46868 23.6384 2.72761 23.808 3.13832C23.9866 3.54904 24.1071 3.99993 24.1696 4.491C24.2411 5.06243 24.2946 5.67404 24.3304 6.32582C24.375 6.96868 24.4018 7.47314 24.4107 7.83922V8.37493V10.1964C24.4196 11.491 24.3393 12.7856 24.1696 14.0803C24.1071 14.5714 23.9955 15.0178 23.8348 15.4196C23.6741 15.8124 23.5313 16.0848 23.4063 16.2365L23.2188 16.4642C23.0938 16.5981 22.9643 16.7187 22.8304 16.8258C22.6964 16.924 22.558 17.0089 22.4152 17.0803C22.2723 17.1428 22.1473 17.1964 22.0402 17.241C21.933 17.2856 21.8036 17.3214 21.6518 17.3481C21.5089 17.3749 21.4018 17.3973 21.3304 17.4151C21.2679 17.424 21.1652 17.4374 21.0223 17.4553C20.8884 17.4642 20.817 17.4687 20.808 17.4687C18.567 17.6383 15.7679 17.7231 12.4107 17.7231C10.5625 17.7053 8.95536 17.6785 7.58929 17.6428C6.23215 17.5981 5.33929 17.5624 4.91072 17.5356L4.25447 17.4821L3.77233 17.4285C3.4509 17.3839 3.20536 17.3392 3.03572 17.2946C2.87501 17.2499 2.64733 17.1562 2.35268 17.0133C2.06697 16.8705 1.81697 16.6874 1.60268 16.4642C1.54911 16.4106 1.47768 16.3303 1.3884 16.2231C1.30804 16.1071 1.17858 15.8437 1 15.433C0.830362 15.0223 0.714291 14.5714 0.651791 14.0803C0.580362 13.5089 0.522326 12.9017 0.477683 12.2589C0.441969 11.6071 0.419648 11.0981 0.410719 10.7321V10.1964V8.37493C0.401791 7.08029 0.482148 5.78564 0.651791 4.491C0.714291 3.99993 0.825898 3.55797 0.986612 3.16511C1.14733 2.76332 1.29018 2.48654 1.41518 2.33475L1.60268 2.10707C1.72768 1.97314 1.85715 1.85707 1.99108 1.75886C2.125 1.65172 2.2634 1.56243 2.40625 1.491C2.54911 1.41957 2.67411 1.36154 2.78126 1.31689C2.8884 1.27225 3.0134 1.23654 3.15626 1.20975C3.30804 1.18296 3.41518 1.16511 3.47768 1.15618C3.54018 1.13832 3.64286 1.12493 3.78572 1.116C3.92858 1.09814 4.00447 1.08922 4.0134 1.08922C6.25447 0.928502 9.05358 0.848145 12.4107 0.848145Z" fill="white"/>
</svg>
